<svg width="100" height="100" viewBox="0 0 100 100" fill="none" xmlns="http://www.w3.org/2000/svg">
<rect width="100" height="100" rx="20" fill="#F5F5F5"/>
<g clip-path="url(#clip0_463_133)">
<rect width="33.5938" height="33.5938" transform="translate(33.5938 33.5938)" fill="#F5F5F5"/>
<path d="M50.5859 65.625C58.8918 65.625 65.625 58.8918 65.625 50.5859C65.625 42.2801 58.8918 35.5469 50.5859 35.5469C42.2801 35.5469 35.5469 42.2801 35.5469 50.5859C35.5469 58.8918 42.2801 65.625 50.5859 65.625Z" fill="#F5F5F5" stroke="#00C7FF" stroke-width="4"/>
<path d="M59.6904 45.0909C59.5724 44.9719 59.432 44.8774 59.2773 44.813C59.1226 44.7485 58.9567 44.7153 58.7891 44.7153C58.6215 44.7153 58.4556 44.7485 58.3008 44.813C58.1461 44.8774 58.0057 44.9719 57.8877 45.0909L48.4297 54.5616L44.456 50.5753C44.3335 50.4569 44.1888 50.3638 44.0303 50.3013C43.8718 50.2388 43.7026 50.2082 43.5323 50.2112C43.3619 50.2141 43.1938 50.2506 43.0375 50.3185C42.8813 50.3864 42.7399 50.4844 42.6216 50.607C42.5032 50.7295 42.4102 50.8742 42.3477 51.0327C42.2852 51.1912 42.2546 51.3604 42.2575 51.5308C42.2605 51.7011 42.297 51.8692 42.3649 52.0255C42.4328 52.1817 42.5308 52.3231 42.6533 52.4414L47.5283 57.3164C47.6464 57.4354 47.7867 57.5299 47.9414 57.5943C48.0962 57.6588 48.2621 57.692 48.4297 57.692C48.5973 57.692 48.7632 57.6588 48.9179 57.5943C49.0726 57.5299 49.2131 57.4354 49.331 57.3164L59.6904 46.9571C59.8193 46.8381 59.9221 46.6939 59.9924 46.5333C60.0628 46.3727 60.0992 46.1993 60.0992 46.0239C60.0992 45.8486 60.0628 45.6752 59.9924 45.5146C59.9221 45.354 59.8193 45.2097 59.6904 45.0909Z" fill="#00C7FF"/>
</g>
<defs>
<clipPath id="clip0_463_133">
<rect width="33.5938" height="33.5938" fill="white" transform="translate(33.5938 33.5938)"/>
</clipPath>
</defs>
</svg>
