<svg width="54" height="36" viewBox="0 0 54 36" fill="none" xmlns="http://www.w3.org/2000/svg">
<path d="M22.5 29.25L14.625 21.375L17.797 18.18L22.5 22.883L34.155 11.25L37.328 14.422M43.538 13.567C42.008 5.827 35.19 0 27 0C20.497 0 14.85 3.69 12.037 9.067C5.265 9.81 0 15.525 0 22.5C0 26.08 1.422 29.514 3.954 32.046C6.486 34.578 9.92 36 13.5 36H42.75C44.227 36 45.69 35.709 47.055 35.144C48.42 34.578 49.66 33.75 50.705 32.705C51.75 31.66 52.578 30.42 53.144 29.055C53.709 27.69 54 26.227 54 24.75C54 18.81 49.388 13.995 43.538 13.567Z" fill="#FFC901"/>
</svg>
